<svg width="411" height="468" viewBox="0 0 411 468" fill="none" xmlns="http://www.w3.org/2000/svg">
<path d="M158.495 250.761H252.505V343.576H158.495V250.761Z" fill="#B6ACA4" stroke="black"/>
<path d="M0.553802 449.079C0.931356 445.782 1.29727 442.538 1.65734 439.346C4.1996 416.805 6.44983 396.854 10.4417 379.322C15.024 359.197 21.8919 342.31 34.0934 328.412C46.2791 314.533 60.6072 308.135 78.9093 302.617C84.6741 300.879 90.8392 299.227 97.4537 297.455C111.817 293.607 128.3 289.191 147.405 282.091L147.636 282.005L147.709 281.77L153.996 261.443L198.654 294.16L205.089 319.567V466.721C134.022 470.307 66.5547 460.726 0.553802 449.079Z" fill="#020204" stroke="black"/>
<path d="M409.343 439.346C409.703 442.538 410.069 445.782 410.446 449.079C344.445 460.726 276.978 470.307 205.911 466.721V319.567L212.346 294.16L257.005 261.443L263.291 281.77L263.364 282.005L263.595 282.091C282.7 289.191 299.183 293.607 313.546 297.455C320.161 299.227 326.326 300.879 332.091 302.617C350.393 308.135 364.721 314.533 376.907 328.412C389.108 342.31 395.976 359.197 400.558 379.322C404.55 396.854 406.801 416.805 409.343 439.346Z" fill="#020204" stroke="black"/>
<path d="M106.672 262.466H108.238C114.732 268.975 118.709 277.991 118.709 287.876C118.709 307.795 102.65 324.009 82.7348 324.009C62.9072 324.009 46.7611 307.883 46.7611 287.876C46.7611 275.273 53.1666 264.169 62.9054 257.737L63.4045 257.407L62.9916 256.974C56.9391 250.631 53.2552 242.087 53.2552 232.57C53.2552 220.326 59.57 209.49 69.0436 203.235L69.5233 202.918L69.1431 202.487C63.7057 196.321 60.372 188.129 60.372 179.141C60.372 166.894 66.6 156.059 76.0714 149.806L76.5888 149.464L76.1454 149.031C69.6554 142.689 65.6207 133.792 65.6207 123.924C65.6207 107.713 76.4975 94.0599 91.4062 90.0083L91.9714 89.8547L91.731 89.3206C88.824 82.8619 87.2381 75.784 87.2381 68.2612C87.2381 39.8548 110.146 16.8505 138.424 16.8505C147.411 16.8505 155.779 19.1509 163.09 23.2204L163.493 23.4446L163.749 23.0613C172.911 9.34665 188.503 0.410645 206.212 0.410645C223.917 0.410645 239.424 9.43381 248.677 23.0643L248.934 23.4429L249.334 23.2204C256.644 19.1511 265.101 16.8505 274 16.8505C302.278 16.8505 325.185 39.8548 325.185 68.2612C325.185 75.871 323.512 83.1267 320.516 89.6752L320.281 90.1894L320.82 90.3599C335.03 94.8528 345.379 108.156 345.379 123.924C345.379 133.792 341.345 142.689 334.855 149.031L334.411 149.464L334.929 149.806C344.4 156.059 350.628 166.894 350.628 179.141C350.628 188.038 347.295 196.232 341.855 202.49L341.48 202.921L341.957 203.235C351.43 209.49 357.745 220.326 357.745 232.57C357.745 241.998 354.061 250.63 347.922 256.972L347.503 257.405L348.006 257.737C357.745 264.169 364.15 275.273 364.15 287.876C364.15 307.795 348.091 324.009 328.176 324.009C308.349 324.009 292.203 307.883 292.203 287.876C292.203 277.917 296.239 268.841 302.819 262.321L303.245 261.898L302.752 261.555C293.63 255.212 287.666 244.641 287.666 232.66C287.666 223.762 290.999 215.569 296.437 209.403L296.817 208.972L296.337 208.655C286.864 202.4 280.549 191.564 280.549 179.32C280.549 169.452 284.584 160.555 291.074 154.213L291.517 153.78L291 153.438C281.528 147.185 275.3 136.35 275.3 124.103C275.3 122.873 275.388 121.64 275.477 120.386L275.515 119.851H274.978H274.976H274.974H274.972H274.97H274.968H274.966H274.964H274.961H274.959H274.957H274.955H274.953H274.951H274.949H274.947H274.945H274.943H274.941H274.938H274.936H274.934H274.932H274.93H274.928H274.926H274.924H274.922H274.92H274.918H274.916H274.913H274.911H274.909H274.907H274.905H274.903H274.901H274.899H274.897H274.895H274.893H274.89H274.888H274.886H274.884H274.882H274.88H274.878H274.876H274.874H274.872H274.87H274.868H274.865H274.863H274.861H274.859H274.857H274.855H274.853H274.851H274.849H274.847H274.844H274.842H274.84H274.838H274.836H274.834H274.832H274.83H274.828H274.826H274.824H274.821H274.819H274.817H274.815H274.813H274.811H274.809H274.807H274.805H274.803H274.8H274.798H274.796H274.794H274.792H274.79H274.788H274.786H274.784H274.782H274.779H274.777H274.775H274.773H274.771H274.769H274.767H274.765H274.763H274.761H274.758H274.756H274.754H274.752H274.75H274.748H274.746H274.744H274.742H274.739H274.737H274.735H274.733H274.731H274.729H274.727H274.725H274.723H274.72H274.718H274.716H274.714H274.712H274.71H274.708H274.706H274.703H274.701H274.699H274.697H274.695H274.693H274.691H274.689H274.687H274.684H274.682H274.68H274.678H274.676H274.674H274.672H274.67H274.667H274.665H274.663H274.661H274.659H274.657H274.655H274.652H274.65H274.648H274.646H274.644H274.642H274.64H274.638H274.635H274.633H274.631H274.629H274.627H274.625H274.623H274.62H274.618H274.616H274.614H274.612H274.61H274.608H274.605H274.603H274.601H274.599H274.597H274.595H274.592H274.59H274.588H274.586H274.584H274.582H274.58H274.577H274.575H274.573H274.571H274.569H274.567H274.564H274.562H274.56H274.558H274.556H274.554H274.551H274.549H274.547H274.545H274.543H274.541H274.538H274.536H274.534H274.532H274.53H274.528H274.525H274.523H274.521H274.519H274.517H274.515H274.512H274.51H274.508H274.506H274.504H274.501H274.499H274.497H274.495H274.493H274.49H274.488H274.486H274.484H274.482H274.48H274.477H274.475H274.473H274.471H274.469H274.466H274.464H274.462H274.46H274.458H274.455H274.453H274.451H274.449H274.447H274.444H274.442H274.44H274.438H274.435H274.433H274.431H274.429H274.427H274.424H274.422H274.42H274.418H274.415H274.413H274.411H274.409H274.407H274.404H274.402H274.4H274.398H274.395H274.393H274.391H274.389H274.386H274.384H274.382H274.38H274.378H274.375H274.373H274.371H274.369H274.366H274.364H274.362H274.36H274.357H274.355H274.353H274.351H274.348H274.346H274.344H274.341H274.339H274.337H274.335H274.332H274.33H274.328H274.326H274.323H274.321H274.319H274.317H274.314H274.312H274.31H274.307H274.305H274.303H274.301H274.298H274.296H274.294H274.291H274.289H274.287H274.285H274.282H274.28H274.278H274.275H274.273H274.271H274.269H274.266H274.264H274.262H274.259H274.257H274.255H274.252H274.25H274.248H274.245H274.243H274.241H274.239H274.236H274.234H274.232H274.229H274.227H274.225H274.222H274.22H274.218H274.215H274.213H274.211H274.208H274.206H274.204H274.201H274.199H274.197H274.194H274.192H274.19H274.187H274.185H274.182H274.18H274.178H274.175H274.173H274.171H274.168H274.166H274.164H274.161H274.159H274.157H274.154H274.152H274.149H274.147H274.145H274.142H274.14H274.138H274.135H274.133H274.13H274.128H274.126H274.123H274.121H274.118H274.116H274.114H274.111H274.109H274.106H274.104H274.102H274.099H274.097H274.094H274.092H274.09H274.087H274.085H274.082H274.08H274.078H274.075H274.073H274.07H274.068H274.065H274.063H274.061H274.058H274.056H274.053H274.051H274.048H274.046H274.044H274.041H274.039H274.036H274.034H274.031H274.029H274.026H274.024H274.021H274.019H274.017H274.014H274.012H274.009H274.007H274.004H274.002H273.999H273.997H273.994H273.992H273.989H273.987H273.984H273.982H273.979H273.977H273.974H273.972H273.969H273.967H273.964H273.962H273.96H273.957H273.954H273.952H273.949H273.947H273.944H273.942H273.939H273.937H273.934H273.932H273.929H273.927H273.924H273.922H273.919H273.917H273.914H273.912H273.909H273.907H273.904H273.901H273.899H273.896H273.894H273.891H273.889H273.886H273.884H273.881H273.878H273.876H273.873H273.871H273.868H273.866H273.863H273.86H273.858H273.855H273.853H273.85H273.848H273.845H273.842H273.84H273.837H273.835H273.832H273.829H273.827H273.824H273.822C256.116 119.851 240.61 110.827 231.356 97.1968L231.099 96.8182L230.7 97.0408C223.389 101.11 214.932 103.411 206.034 103.411C197.047 103.411 188.679 101.11 181.368 97.0408L180.965 96.8166L180.709 97.1999C171.547 110.915 155.955 119.851 138.246 119.851C137.439 119.851 136.579 119.85 135.811 119.764L135.214 119.698L135.256 120.297C135.346 121.55 135.433 122.784 135.433 124.014C135.433 136.26 129.205 147.095 119.734 153.349L119.216 153.691L119.66 154.124C126.15 160.466 130.184 169.362 130.184 179.23C130.184 191.474 123.87 202.311 114.396 208.566L113.916 208.882L114.297 209.314C119.734 215.479 123.068 223.672 123.068 232.66C123.068 244.641 117.104 255.212 107.981 261.555L106.672 262.466Z" fill="#B6B6B6" stroke="black"/>
<path d="M205.823 103.5H205.822V0.5H205.823H205.825H205.826H205.827H205.829H205.83H205.831H205.832H205.834H205.835H205.836H205.838H205.839H205.84H205.842H205.843H205.844H205.845H205.847H205.848H205.849H205.851H205.852H205.853H205.855H205.856H205.857H205.859H205.86H205.861H205.862H205.864H205.865H205.866H205.868H205.869H205.87H205.872H205.873H205.874H205.875H205.877H205.878H205.879H205.881H205.882H205.883H205.885H205.886H205.887H205.889H205.89H205.891H205.892H205.894H205.895H205.896H205.898H205.899H205.9H205.902H205.903H205.904H205.905H205.907H205.908H205.909H205.911H205.912H205.913H205.915H205.916H205.917H205.919H205.92H205.921H205.923H205.924H205.925H205.926H205.928H205.929H205.93H205.932H205.933H205.934H205.936H205.937H205.938H205.94H205.941H205.942H205.944H205.945H205.946H205.948H205.949H205.95H205.952H205.953H205.954H205.956H205.957H205.958H205.96H205.961H205.962H205.963H205.965H205.966H205.967H205.969H205.97H205.971H205.973H205.974H205.975H205.977H205.978H205.98H205.981H205.982H205.984H205.985H205.986H205.988H205.989H205.99H205.992H205.993H205.994H205.996H205.997H205.998H206H206.001H206.002H206.004H206.005H206.006H206.008H206.009H206.01H206.012H206.013H206.015H206.016H206.017H206.019H206.02H206.021H206.023H206.024H206.025H206.027H206.028H206.03H206.031H206.032H206.034H206.035H206.036H206.038H206.039H206.041H206.042H206.043H206.045H206.046H206.048H206.049H206.05H206.052H206.053H206.054H206.056H206.057H206.059H206.06H206.061H206.063H206.064H206.066H206.067H206.068H206.07H206.071H206.073H206.074H206.075H206.077H206.078H206.08H206.081H206.083H206.084H206.085H206.087H206.088H206.09H206.091H206.092H206.094H206.095H206.097H206.098H206.1H206.101H206.103H206.104H206.105H206.107H206.108H206.11H206.111H206.113H206.114H206.115H206.117H206.118H206.12H206.121H206.123H206.124H206.126H206.127H206.129H206.13H206.132H206.133H206.134H206.136H206.137H206.139H206.14H206.142H206.143H206.145H206.146H206.148H206.149H206.151H206.152H206.154H206.155H206.157H206.158H206.16H206.161H206.163H206.164H206.166H206.167H206.169H206.17H206.172H206.173H206.175H206.176H206.178H206.179H206.181H206.182H206.184H206.185H206.187H206.189H206.19H206.192H206.193H206.195H206.196H206.198H206.199H206.201H206.202H206.204H206.206H206.207H206.209H206.21H206.212C223.917 0.5 239.424 9.52317 248.677 23.1537L248.934 23.5323L249.334 23.3097C256.644 19.2405 265.101 16.9399 274 16.9399C302.278 16.9399 325.185 39.9442 325.185 68.3505C325.185 75.9604 323.512 83.2161 320.516 89.7645L320.281 90.2788L320.82 90.4493C335.03 94.9422 345.379 108.245 345.379 124.014C345.379 133.882 341.345 142.778 334.855 149.12L334.411 149.553L334.929 149.895C344.4 156.149 350.628 166.984 350.628 179.23C350.628 188.128 347.295 196.322 341.855 202.579L341.48 203.01L341.957 203.324C351.43 209.58 357.745 220.416 357.745 232.66C357.745 242.088 354.061 250.72 347.922 257.061L347.503 257.494L348.006 257.826C357.745 264.259 364.15 275.362 364.15 287.966C364.15 307.885 348.091 324.098 328.176 324.098C308.349 324.098 292.203 307.973 292.203 287.966C292.203 278.007 296.239 268.931 302.819 262.41L303.245 261.987L302.752 261.645C293.63 255.301 287.666 244.73 287.666 232.749C287.666 223.851 290.999 215.658 296.437 209.492L296.817 209.061L296.337 208.744C286.864 202.489 280.549 191.653 280.549 179.409C280.549 169.541 284.584 160.645 291.074 154.303L291.517 153.869L291 153.528C281.528 147.274 275.3 136.439 275.3 124.192C275.3 122.962 275.388 121.729 275.477 120.475L275.515 119.94H274.978H274.976H274.974H274.972H274.97H274.968H274.966H274.963H274.961H274.959H274.957H274.955H274.953H274.951H274.949H274.947H274.945H274.943H274.941H274.938H274.936H274.934H274.932H274.93H274.928H274.926H274.924H274.922H274.92H274.918H274.916H274.913H274.911H274.909H274.907H274.905H274.903H274.901H274.899H274.897H274.895H274.893H274.89H274.888H274.886H274.884H274.882H274.88H274.878H274.876H274.874H274.872H274.87H274.867H274.865H274.863H274.861H274.859H274.857H274.855H274.853H274.851H274.849H274.847H274.844H274.842H274.84H274.838H274.836H274.834H274.832H274.83H274.828H274.826H274.824H274.821H274.819H274.817H274.815H274.813H274.811H274.809H274.807H274.805H274.803H274.8H274.798H274.796H274.794H274.792H274.79H274.788H274.786H274.784H274.782H274.779H274.777H274.775H274.773H274.771H274.769H274.767H274.765H274.763H274.76H274.758H274.756H274.754H274.752H274.75H274.748H274.746H274.744H274.742H274.739H274.737H274.735H274.733H274.731H274.729H274.727H274.725H274.723H274.72H274.718H274.716H274.714H274.712H274.71H274.708H274.706H274.703H274.701H274.699H274.697H274.695H274.693H274.691H274.689H274.686H274.684H274.682H274.68H274.678H274.676H274.674H274.672H274.669H274.667H274.665H274.663H274.661H274.659H274.657H274.655H274.652H274.65H274.648H274.646H274.644H274.642H274.64H274.637H274.635H274.633H274.631H274.629H274.627H274.625H274.623H274.62H274.618H274.616H274.614H274.612H274.61H274.608H274.605H274.603H274.601H274.599H274.597H274.595H274.592H274.59H274.588H274.586H274.584H274.582H274.58H274.577H274.575H274.573H274.571H274.569H274.567H274.564H274.562H274.56H274.558H274.556H274.554H274.551H274.549H274.547H274.545H274.543H274.541H274.538H274.536H274.534H274.532H274.53H274.528H274.525H274.523H274.521H274.519H274.517H274.515H274.512H274.51H274.508H274.506H274.504H274.501H274.499H274.497H274.495H274.493H274.49H274.488H274.486H274.484H274.482H274.479H274.477H274.475H274.473H274.471H274.469H274.466H274.464H274.462H274.46H274.458H274.455H274.453H274.451H274.449H274.446H274.444H274.442H274.44H274.438H274.435H274.433H274.431H274.429H274.427H274.424H274.422H274.42H274.418H274.415H274.413H274.411H274.409H274.407H274.404H274.402H274.4H274.398H274.395H274.393H274.391H274.389H274.386H274.384H274.382H274.38H274.377H274.375H274.373H274.371H274.369H274.366H274.364H274.362H274.36H274.357H274.355H274.353H274.351H274.348H274.346H274.344H274.341H274.339H274.337H274.335H274.332H274.33H274.328H274.326H274.323H274.321H274.319H274.317H274.314H274.312H274.31H274.307H274.305H274.303H274.301H274.298H274.296H274.294H274.291H274.289H274.287H274.285H274.282H274.28H274.278H274.275H274.273H274.271H274.269H274.266H274.264H274.262H274.259H274.257H274.255H274.252H274.25H274.248H274.245H274.243H274.241H274.238H274.236H274.234H274.232H274.229H274.227H274.225H274.222H274.22H274.218H274.215H274.213H274.211H274.208H274.206H274.204H274.201H274.199H274.197H274.194H274.192H274.19H274.187H274.185H274.182H274.18H274.178H274.175H274.173H274.171H274.168H274.166H274.164H274.161H274.159H274.157H274.154H274.152H274.149H274.147H274.145H274.142H274.14H274.138H274.135H274.133H274.13H274.128H274.126H274.123H274.121H274.118H274.116H274.114H274.111H274.109H274.106H274.104H274.102H274.099H274.097H274.094H274.092H274.09H274.087H274.085H274.082H274.08H274.078H274.075H274.073H274.07H274.068H274.065H274.063H274.061H274.058H274.056H274.053H274.051H274.048H274.046H274.044H274.041H274.039H274.036H274.034H274.031H274.029H274.026H274.024H274.021H274.019H274.017H274.014H274.012H274.009H274.007H274.004H274.002H273.999H273.997H273.994H273.992H273.989H273.987H273.984H273.982H273.979H273.977H273.974H273.972H273.969H273.967H273.964H273.962H273.959H273.957H273.954H273.952H273.949H273.947H273.944H273.942H273.939H273.937H273.934H273.932H273.929H273.927H273.924H273.922H273.919H273.917H273.914H273.912H273.909H273.907H273.904H273.901H273.899H273.896H273.894H273.891H273.889H273.886H273.884H273.881H273.878H273.876H273.873H273.871H273.868H273.866H273.863H273.86H273.858H273.855H273.853H273.85H273.848H273.845H273.842H273.84H273.837H273.835H273.832H273.829H273.827H273.824H273.822C256.116 119.94 240.61 110.917 231.356 97.2862L231.099 96.9076L230.7 97.1301C223.389 101.199 214.932 103.5 206.034 103.5H206.032H206.031H206.029H206.028H206.026H206.024H206.023H206.021H206.02H206.018H206.017H206.015H206.014H206.012H206.011H206.009H206.008H206.006H206.004H206.003H206.001H206H205.998H205.997H205.995H205.994H205.992H205.991H205.989H205.988H205.986H205.985H205.983H205.982H205.98H205.979H205.977H205.976H205.974H205.973H205.971H205.97H205.968H205.967H205.965H205.964H205.962H205.961H205.959H205.958H205.957H205.955H205.954H205.952H205.951H205.949H205.948H205.946H205.945H205.943H205.942H205.94H205.939H205.938H205.936H205.935H205.933H205.932H205.93H205.929H205.927H205.926H205.925H205.923H205.922H205.92H205.919H205.917H205.916H205.915H205.913H205.912H205.91H205.909H205.907H205.906H205.905H205.903H205.902H205.9H205.899H205.898H205.896H205.895H205.893H205.892H205.891H205.889H205.888H205.886H205.885H205.884H205.882H205.881H205.879H205.878H205.877H205.875H205.874H205.872H205.871H205.87H205.868H205.867H205.865H205.864H205.863H205.861H205.86H205.859H205.857H205.856H205.854H205.853H205.852H205.85H205.849H205.848H205.846H205.845H205.843H205.842H205.841H205.839H205.838H205.837H205.835H205.834H205.833H205.831H205.83H205.829H205.827H205.826H205.824H205.823Z" fill="#919191" stroke="black"/>
<path d="M290.758 167.168C290.758 199.716 281.186 229.162 265.735 250.459C250.284 271.757 228.981 284.875 205.5 284.875C182.019 284.875 160.716 271.757 145.265 250.459C129.814 229.162 120.242 199.716 120.242 167.168C120.242 134.621 129.814 105.174 145.265 83.8776C160.716 62.5802 182.019 49.4622 205.5 49.4622C228.981 49.4622 250.284 62.5802 265.735 83.8776C281.186 105.174 290.758 134.621 290.758 167.168Z" fill="#D7C4AD" stroke="black"/>
<path d="M206 49.4642C229.266 49.649 250.376 62.7243 265.722 83.8667C281.177 105.16 290.758 134.606 290.758 167.168C290.758 199.686 281.177 229.132 265.722 250.437C250.376 271.59 229.266 284.687 206 284.873V49.4642Z" fill="#C5B09F" stroke="black"/>
<path d="M173.12 366.518C176.493 348.927 186.108 326.108 198.741 300.259H213.248C215.154 305.348 218.213 311.769 221.611 318.903C222.473 320.712 223.357 322.568 224.249 324.46C228.744 333.984 233.469 344.441 236.784 354.617C240.101 364.801 241.986 374.649 240.847 382.969C239.714 391.251 235.587 398.025 226.816 402.145L226.532 402.279L226.529 402.592C226.484 406.355 226.393 408.877 225.704 411.201C225.02 413.508 223.734 415.658 221.22 418.625L221.218 418.629C216.785 423.953 211.51 427.27 205.56 428.609C202.091 426.94 198.801 424.928 195.686 422.233L195.682 422.23C191.746 418.899 189.313 416.158 187.766 413.063C186.219 409.966 185.536 406.469 185.182 401.579L185.159 401.266L184.867 401.15C178.738 398.727 174.98 394.483 173.154 388.665C171.318 382.819 171.426 375.355 173.12 366.518Z" fill="#B6ACA4" stroke="black"/>
<path d="M221.218 418.629C216.895 423.821 211.77 427.105 206 428.506V300.259H213.248C215.154 305.348 218.213 311.769 221.611 318.903C222.473 320.712 223.357 322.568 224.249 324.46C228.744 333.984 233.469 344.441 236.783 354.617C240.101 364.801 241.986 374.649 240.847 382.969C239.714 391.251 235.587 398.025 226.816 402.145L226.532 402.279L226.528 402.592C226.484 406.355 226.393 408.877 225.704 411.201C225.02 413.508 223.734 415.658 221.22 418.625L221.218 418.629Z" fill="#D7C4AD" stroke="black"/>
</svg>
