<?xml version="1.0" encoding="UTF-8"?>
<svg width="800" height="600" viewBox="0 0 800 600" fill="none" xmlns="http://www.w3.org/2000/svg">
  <!-- Background Elements -->
  <rect x="50" y="100" width="700" height="400" rx="20" fill="#E3F2FD" />
  <rect x="100" y="150" width="300" height="50" rx="8" fill="#90CAF9" />
  <rect x="100" y="220" width="250" height="40" rx="8" fill="#64B5F6" />
  <rect x="100" y="280" width="200" height="40" rx="8" fill="#42A5F5" />
  
  <!-- Document Icons -->
  <rect x="500" y="150" width="150" height="200" rx="10" fill="#BBDEFB" />
  <rect x="520" y="170" width="110" height="10" rx="5" fill="#64B5F6" />
  <rect x="520" y="190" width="90" height="10" rx="5" fill="#64B5F6" />
  <rect x="520" y="210" width="70" height="10" rx="5" fill="#64B5F6" />
  
  <rect x="550" y="250" width="150" height="200" rx="10" fill="#90CAF9" />
  <rect x="570" y="270" width="110" height="10" rx="5" fill="#42A5F5" />
  <rect x="570" y="290" width="90" height="10" rx="5" fill="#42A5F5" />
  <rect x="570" y="310" width="70" height="10" rx="5" fill="#42A5F5" />
  
  <!-- Decorative Elements -->
  <circle cx="150" y="400" r="30" fill="#2196F3" opacity="0.5" />
  <circle cx="650" y="200" r="20" fill="#2196F3" opacity="0.3" />
  <circle cx="400" y="450" r="25" fill="#2196F3" opacity="0.4" />
</svg> 